<?xml version="1.0" encoding="iso-8859-1"?>
<!-- Generator: Adobe Illustrator 19.0.0, SVG Export Plug-In . SVG Version: 6.00 Build 0)  -->
<svg version="1.1" id="Capa_1" xmlns="http://www.w3.org/2000/svg" xmlns:xlink="http://www.w3.org/1999/xlink" x="0px" y="0px"
	 viewBox="0 0 436.907 436.907" style="enable-background:new 0 0 436.907 436.907;" xml:space="preserve">
<circle style="fill:#45B39C;" cx="218.453" cy="218.453" r="218.453"/>
<path style="opacity:0.1;enable-background:new    ;" d="M218.453,436.907c103.678,0,190.422-72.248,212.792-169.128l-96.081-96.08
	l-58.334-51.2H159.344l-58.368,51.2h0.751v134.622H90.463v10.069l120.323,120.322C213.336,436.801,215.882,436.907,218.453,436.907z
	"/>
<g>
	<polygon style="fill:#3A556A;" points="159.333,120.502 276.835,120.502 218.084,176.272 	"/>
	<rect x="90.453" y="306.313" style="fill:#3A556A;" width="256" height="10.1"/>
</g>
<rect x="101.728" y="171.691" style="fill:#DC8744;" width="233.438" height="134.601"/>
<rect x="101.728" y="171.691" style="fill:#3A556A;" width="233.438" height="4.57"/>
<rect x="231.974" y="187.73" style="fill:#2D93BA;" width="29.413" height="30.242"/>
<polygon style="fill:#27A2DB;" points="231.973,217.974 231.973,187.732 261.387,187.732 "/>
<g>
	<rect x="245.828" y="187.522" style="fill:#EBF0F3;" width="1.707" height="30.454"/>
	<rect x="231.974" y="201.557" style="fill:#EBF0F3;" width="29.413" height="2.56"/>
</g>
<rect x="180.19" y="187.73" style="fill:#2D93BA;" width="29.413" height="30.242"/>
<polygon style="fill:#27A2DB;" points="180.19,217.974 180.19,187.732 209.603,187.732 "/>
<g>
	<rect x="194.045" y="187.522" style="fill:#EBF0F3;" width="1.707" height="30.454"/>
	<rect x="180.19" y="201.557" style="fill:#EBF0F3;" width="29.413" height="2.56"/>
</g>
<rect x="126.051" y="241.664" style="fill:#2D93BA;" width="29.413" height="53.678"/>
<polygon style="fill:#27A2DB;" points="126.05,295.334 126.05,241.656 155.463,241.656 "/>
<g>
	<rect x="139.906" y="241.459" style="fill:#EBF0F3;" width="1.707" height="53.89"/>
	<rect x="126.051" y="254.464" style="fill:#EBF0F3;" width="29.413" height="2.56"/>
</g>
<rect x="126.051" y="187.73" style="fill:#2D93BA;" width="29.413" height="30.242"/>
<polygon style="fill:#27A2DB;" points="126.05,217.974 126.05,187.732 155.463,187.732 "/>
<g>
	<rect x="139.906" y="187.522" style="fill:#EBF0F3;" width="1.707" height="30.454"/>
	<rect x="126.051" y="201.557" style="fill:#EBF0F3;" width="29.413" height="2.56"/>
</g>
<rect x="281.02" y="187.73" style="fill:#2D93BA;" width="29.413" height="30.242"/>
<polygon style="fill:#27A2DB;" points="281.006,217.974 281.006,187.732 310.419,187.732 "/>
<g>
	<rect x="294.844" y="187.624" style="fill:#EBF0F3;" width="1.707" height="30.454"/>
	<rect x="281.02" y="201.557" style="fill:#EBF0F3;" width="29.413" height="2.56"/>
</g>
<rect x="281.02" y="241.664" style="fill:#2D93BA;" width="29.413" height="53.678"/>
<polygon style="fill:#27A2DB;" points="281.005,295.331 281.005,241.653 310.418,241.653 "/>
<g>
	<rect x="294.844" y="241.459" style="fill:#EBF0F3;" width="1.707" height="53.886"/>
	<rect x="281.02" y="254.464" style="fill:#EBF0F3;" width="29.413" height="2.56"/>
</g>
<rect x="206.677" y="252.621" style="fill:#64798A;" width="30.464" height="53.678"/>
<ellipse style="fill:#3A556A;" cx="233.097" cy="279.45" rx="2.28" ry="2.611"/>
<polygon style="fill:#FCD462;" points="255.54,257.018 187.187,257.018 205.113,229.666 237.613,229.666 "/>
<g>
	<polygon style="fill:#3A556A;" points="244.343,257.018 250.69,257.018 235.308,229.666 232.29,229.666 	"/>
	<polygon style="fill:#3A556A;" points="231.266,257.018 237.613,257.018 229.09,229.666 226.072,229.666 	"/>
	<polygon style="fill:#3A556A;" points="218.19,257.018 224.537,257.018 222.872,229.666 219.854,229.666 	"/>
	<polygon style="fill:#3A556A;" points="205.113,257.018 211.46,257.018 216.654,229.666 213.636,229.666 	"/>
	<polygon style="fill:#3A556A;" points="192.036,257.018 198.383,257.018 210.437,229.666 207.419,229.666 	"/>
	<rect x="192.034" y="257.024" style="fill:#3A556A;" width="6.298" height="49.302"/>
	<rect x="244.326" y="257.024" style="fill:#3A556A;" width="6.38" height="49.302"/>
</g>
<g>
	<polyline style="fill:#64798A;" points="335.178,171.702 276.835,120.502 218.491,171.702 	"/>
	<polyline style="fill:#64798A;" points="217.677,171.702 159.333,120.502 100.989,171.702 	"/>
</g>
<g>
</g>
<g>
</g>
<g>
</g>
<g>
</g>
<g>
</g>
<g>
</g>
<g>
</g>
<g>
</g>
<g>
</g>
<g>
</g>
<g>
</g>
<g>
</g>
<g>
</g>
<g>
</g>
<g>
</g>
</svg>
